
<svg width="1440px" height="900px" viewBox="0 0 1440 900" version="1.1" xmlns="http://www.w3.org/2000/svg" xmlns:xlink="http://www.w3.org/1999/xlink">
    <g id="Page-1" stroke="none" stroke-width="1" fill="none" fill-rule="evenodd">
        <g id="Home-Page">
            <g id="Header" transform="translate(-204.000000, -19.000000)">
                <g id="cool-background" transform="translate(882.000000, 542.500000) rotate(-180.000000) translate(-882.000000, -542.500000) translate(-0.000000, 0.000000)">
                    <path d="M924.668742,220.613764 C904.58292,268.68545 908.381389,298.824102 936.062049,311.029718 C977.584088,329.338143 1076.31488,336.661357 1117.5842,376.377118 C1158.85212,416.092101 1284.68393,385.389586 1306.20416,317.225984 C1327.72438,249.062383 1366.47142,144 1162.15426,144 C1025.94141,144 946.781208,169.537402 924.669442,220.613764 L924.668742,220.613764 Z" id="Path" fill="#FFFA72"></path>
                    <path d="M103.022396,731.214719 C280.801286,809.281842 703.522578,840.508027 880.219443,1009.85603 C1056.91031,1179.20072 1595.6661,1048.2852 1687.80612,757.635598 C1779.94614,466.986 1945.84373,19 1071.04858,19 C487.84582,19 148.917063,127.891482 54.2443266,345.681088 C-31.7572193,550.65876 -15.4938663,679.16997 103.022396,731.214719 Z" id="Path" fill="#8B6BE1"></path>
                    <path d="M263.604079,604.64758 C414.776604,670.924077 774.233485,697.434113 924.485921,841.205169 C1074.73326,984.973406 1532.85893,873.830302 1611.20929,627.078064 C1689.55964,380.325826 1830.62902,1.57318603e-13 1086.75559,1.57318603e-13 C590.834881,1.57318603e-13 302.630156,92.4453953 222.126128,277.341825 C148.995562,451.36133 162.824944,560.463248 263.604079,604.64758 Z" id="Path" fill="#A572B0"></path>
                    <path d="M454.791249,529.713707 C575.225361,582.515204 861.592676,603.635354 981.293783,718.17561 C1100.99083,832.713619 1465.96428,744.167566 1528.3834,547.583739 C1590.80251,350.999912 1703.18779,48 1110.56862,48 C715.485121,48 485.882024,121.649867 421.747149,268.954094 C363.486464,407.592838 374.503872,494.512709 454.791249,529.713707 Z" id="Path" fill="#BC70AC"></path>
                    <path d="M554.518108,264.389224 C504.547312,383.222433 513.997387,457.72518 582.863106,487.897463 C686.164298,533.155889 931.793085,551.258875 1034.46555,649.436237 C1137.13453,747.611674 1450.18697,671.715057 1503.72636,503.214634 C1557.26575,334.71421 1653.66313,75 1145.34979,75 C806.470747,75 609.530917,138.128458 554.519849,264.389224 L554.518108,264.389224 Z" id="Path" fill="#D56A98"></path>
                    <path d="M663.99795,260.727634 C621.193698,362.831896 629.288493,426.846392 688.277861,452.771122 C776.76415,491.658216 987.166174,507.212722 1075.1139,591.569 C1163.05865,675.923623 1431.21479,610.711481 1477.07585,465.931991 C1522.93691,321.152501 1605.50949,98 1170.09572,98 C879.816893,98 711.121117,152.241442 663.999442,260.727634 L663.99795,260.727634 Z" id="Path" fill="#EA607B"></path>
                    <path d="M737.646268,254.5016 C700.155984,343.914937 707.245844,399.972829 758.91193,422.675276 C836.41302,456.728946 1020.69452,470.350124 1097.72391,544.22144 C1174.75069,618.091308 1409.61637,560.98463 1449.78397,434.200331 C1489.95157,307.416032 1562.27312,112 1180.91413,112 C926.672199,112 778.919293,159.499568 737.647575,254.5016 L737.646268,254.5016 Z" id="Path" fill="#FD5B5F"></path>
                    <path d="M792.909574,249.646572 C759.758217,328.484138 766.027535,377.911527 811.714061,397.928738 C880.245583,427.954554 1043.19931,439.964626 1111.31373,505.098474 C1179.42583,570.231046 1387.1094,519.878921 1422.62822,408.090615 C1458.14704,296.302308 1522.09847,124 1184.87596,124 C960.058642,124 829.405876,165.881339 792.910729,249.646572 L792.909574,249.646572 Z" id="Path" fill="#FC7347"></path>
                    <path d="M851.21684,374.859032 C911.988195,401.369631 1056.48986,411.973645 1116.89134,469.482068 C1177.29077,526.989362 1361.45729,482.532121 1392.95413,383.831226 C1424.45098,285.13033 1481.16087,133 1182.12375,133 C982.763622,133 866.905323,169.978158 834.542703,243.93673 C805.144216,313.544532 810.703627,357.185299 851.21684,374.859032 Z" id="Path" fill="#FF8B38"></path>
                    <path d="M867.481664,235.597893 C841.350595,298.091085 846.292292,337.271332 882.304024,353.138634 C936.322989,376.939586 1064.76887,386.459764 1118.45906,438.090254 C1172.14742,489.719731 1335.85094,449.806462 1363.84813,361.19378 C1391.84531,272.581098 1442.25408,136 1176.4434,136 C999.234459,136 896.249338,169.198623 867.482575,235.597893 L867.481664,235.597893 Z" id="Path" fill="#FAA32A"></path>
                    <path d="M896.605952,228.646146 C873.448754,283.640155 877.828057,318.118772 909.741439,332.081998 C957.612723,353.026836 1071.4407,361.404592 1119.02062,406.839424 C1166.59893,452.273364 1311.67201,417.149687 1336.48295,339.170526 C1361.29388,261.191366 1405.96584,141 1170.406,141 C1013.36449,141 922.099693,170.214788 896.606759,228.646146 L896.605952,228.646146 Z" id="Path" fill="#FFC830"></path>
                </g>
            </g>
        </g>
    </g>
</svg>