
<svg width="491px" height="209px" viewBox="0 0 491 209" version="1.1" xmlns="http://www.w3.org/2000/svg" xmlns:xlink="http://www.w3.org/1999/xlink">
    <g id="Page-1" stroke="none" stroke-width="1" fill="none" fill-rule="evenodd">
        <g id="Home-Page" transform="translate(-141.000000, -585.000000)" fill="#000000">
            <g id="Header" transform="translate(-204.000000, -19.000000)">
                <g id="Skyline" transform="translate(345.000000, 604.000000)">
                    <path d="M18.5547399,62.0961598 C8.85500913,57.8262631 2.08492569,48.1482856 2.08492569,36.8930348 C2.08492569,21.6859704 14.4436727,9.35820896 29.6889597,9.35820896 C44.9342467,9.35820896 57.2929936,21.6859704 57.2929936,36.8930348 C57.2929936,48.3166847 50.318809,58.1155105 40.3858478,62.2841715 L40.3858472,159.325693 L58.5938301,159.325693 L58.5938301,145.677051 L79.8075803,145.677051 L79.8075803,150.767621 L93.3132791,150.767621 L93.3132791,106.561864 L113.561295,73.6567373 L120.958237,73.6567373 L139.190526,106.561864 L139.190526,148.410312 L157.357999,148.410312 L157.357999,154.970461 L165.224846,154.970461 L165.224846,162.903663 L168.068578,162.903663 L168.068578,159.325693 L171.471333,159.325693 L171.471333,111.890278 L181.504601,99.7640407 L181.504601,16.2823368 L184.531433,16.2823368 L184.531433,2.27557661 L201.430165,0 L218.171722,2.27557661 L218.171722,16.2823368 L220.425643,16.2823368 L220.425643,99.7640407 L242.387999,99.7640407 L242.387999,61.9271596 L294.724,61.9271596 L294.724,108.59816 L299.907531,108.59816 L299.907531,83.4624329 L339.010053,83.4624329 L339.010053,92.8283527 L353.67593,92.8283527 L353.67593,124.231708 L357.666876,124.231708 L357.666876,117.429067 L380.873668,117.429067 L380.873668,124.231708 L391.705774,124.231708 L391.705774,99.7640407 L396.015931,99.7640407 L396.015931,83.4624329 L437.591122,83.4624329 L437.591122,111.890278 L454.162541,111.890278 L454.162541,126.582763 L458.023859,126.582763 L458.023859,132.190606 L491,132.190606 L491,209 L0,209 L0,166.924866 L18.5547399,166.924866 L18.5547399,62.0961598 Z" id="Combined-Shape"></path>
                </g>
            </g>
        </g>
    </g>
</svg>